<?xml version="1.0" standalone="no"?>
<!DOCTYPE svg PUBLIC "-//W3C//DTD SVG 20010904//EN"
 "http://www.w3.org/TR/2001/REC-SVG-20010904/DTD/svg10.dtd">
<svg version="1.0" xmlns="http://www.w3.org/2000/svg"
 width="297.000000pt" height="302.000000pt" viewBox="0 0 297.000000 302.000000"
 preserveAspectRatio="xMidYMid meet">

<g transform="translate(0.000000,302.000000) scale(0.100000,-0.100000)"
fill="#000000" stroke="none">
<path d="M1245 2935 c-233 -44 -444 -132 -615 -258 -305 -225 -495 -524 -576
-907 -24 -114 -24 -376 0 -510 78 -436 374 -828 779 -1032 232 -116 529 -173
772 -148 378 39 655 168 910 424 217 219 334 433 396 726 29 137 32 396 5 540
-80 443 -381 837 -790 1035 -103 50 -235 96 -346 120 -108 24 -428 29 -535 10z
m473 -180 c239 -46 464 -166 642 -345 179 -178 299 -403 344 -640 23 -121 21
-380 -3 -490 -54 -242 -159 -434 -338 -620 -79 -83 -95 -104 -91 -125 3 -13 1
-22 -3 -19 -5 3 -9 12 -9 20 0 25 -38 122 -59 153 l-21 29 44 37 c24 19 54 51
67 69 13 19 37 42 54 51 62 36 81 87 50 132 -13 18 -14 30 -4 68 7 30 9 81 4
151 -6 93 -11 114 -43 177 -52 105 -135 184 -237 226 -77 33 -82 33 -195 29
-146 -6 -223 -34 -303 -111 -87 -84 -147 -173 -147 -217 0 -20 -7 -59 -15 -86
-21 -69 -19 -107 9 -163 25 -47 25 -48 5 -77 -27 -41 -24 -71 10 -105 39 -38
66 -39 57 -1 -5 19 3 12 24 -25 68 -115 183 -181 350 -203 l75 -9 -80 4 c-44
2 -109 13 -145 24 -36 12 -66 21 -67 21 -2 0 -16 -27 -33 -60 -33 -66 -55
-143 -65 -234 -4 -32 -10 -54 -15 -50 -4 5 -15 43 -24 86 -18 81 -144 539
-150 546 -8 8 -196 59 -196 53 0 -3 14 -26 31 -51 55 -81 139 -262 139 -299 0
-8 -21 -37 -47 -63 l-47 -48 57 -58 c31 -32 57 -61 57 -66 0 -4 -30 22 -67 59
l-66 66 51 52 c42 43 50 56 45 77 -11 48 -100 225 -147 294 -26 39 -45 77 -44
85 2 9 17 22 33 30 17 7 48 30 70 51 22 21 57 43 78 50 20 6 37 14 37 17 0 3
-9 16 -20 30 -34 44 -22 63 41 63 34 0 33 -4 14 50 -8 23 -15 45 -15 49 0 4
29 19 65 35 36 15 65 31 65 35 0 4 -30 26 -66 50 -37 23 -63 46 -58 50 5 4 37
18 71 31 35 12 84 36 110 53 l48 30 -30 13 c-16 8 -57 25 -90 40 l-60 25 85
78 c95 89 98 82 -37 102 -50 7 -83 16 -83 23 0 6 24 54 54 106 30 52 53 97 51
99 -3 2 -47 -11 -99 -30 -52 -18 -98 -30 -102 -26 -12 12 -23 92 -24 175 0 45
-4 82 -8 82 -18 0 -132 -80 -172 -120 -23 -23 -45 -40 -49 -38 -5 2 -41 42
-80 91 -40 48 -76 85 -80 82 -5 -2 -11 -27 -14 -55 -10 -80 -38 -170 -54 -170
-7 0 -39 11 -71 24 -31 13 -72 27 -91 31 -38 8 -38 13 -2 -87 12 -32 21 -71
21 -87 0 -34 -8 -36 -162 -47 l-97 -6 65 -75 c36 -40 69 -86 75 -100 11 -29 5
-36 -105 -113 -27 -19 -50 -39 -50 -44 -1 -5 22 -16 51 -24 52 -14 133 -73
133 -96 0 -6 -25 -36 -55 -66 -30 -30 -55 -57 -55 -61 0 -4 30 -17 67 -29 38
-13 71 -25 75 -29 4 -3 1 -33 -7 -66 -8 -33 -14 -64 -15 -68 0 -5 28 -7 63 -5
60 3 62 2 65 -22 8 -72 19 -84 55 -57 16 11 16 16 -12 67 -35 65 -67 175 -75
257 -7 66 4 38 23 -67 17 -87 65 -200 101 -237 17 -17 51 -41 76 -52 36 -17
45 -26 42 -43 -2 -18 -23 -28 -123 -61 -66 -22 -123 -44 -126 -49 -3 -5 -30
-92 -59 -195 -44 -151 -55 -181 -61 -159 -4 15 -26 47 -48 71 -140 152 -249
371 -296 595 -21 99 -22 357 -1 462 87 450 414 819 846 956 83 26 134 37 275
56 56 8 260 -4 343 -19z m-838 -1868 c-22 -53 -46 -119 -54 -147 l-15 -49 57
-51 c52 -47 55 -51 40 -67 -16 -15 -17 -15 -12 4 4 15 -4 29 -34 52 -68 55
-69 63 -24 182 51 134 72 182 77 177 2 -2 -14 -47 -35 -101z"/>
</g>
</svg>
